HIERARCHY
ROOT Hips
{
  OFFSET 74.0196 97.4445 -31.1285
  CHANNELS 6 Xposition Yposition Zposition Zrotation Xrotation Yrotation
  JOINT RightUpLeg
  {
    OFFSET -8.9458 -8.66707 0.101652
    CHANNELS 3 Zrotation Xrotation Yrotation
    JOINT RightLeg
    {
      OFFSET -2.94875e-013 -44.4227 1.3727
      CHANNELS 3 Zrotation Xrotation Yrotation
      JOINT RightFoot
      {
        OFFSET 0.253549 -42.0924 -1.46059
        CHANNELS 3 Zrotation Xrotation Yrotation
        JOINT RightToes
        {
          OFFSET 0.04 -4.41509 8.4991
          CHANNELS 3 Zrotation Xrotation Yrotation
          End Site
          {
            OFFSET -0.08 -0.137448 9.77979
          }
        }
      }
    }
  }
  JOINT Spine
  {
    OFFSET -5.68434e-014 11.8905 -6.39488e-014
    CHANNELS 3 Zrotation Xrotation Yrotation
    JOINT Spine1
    {
      OFFSET 5.68434e-014 25.6574 0.127663
      CHANNELS 3 Zrotation Xrotation Yrotation
      JOINT HEad
      {
        OFFSET 4.26326e-014 8.73416 0.011341
        CHANNELS 3 Zrotation Xrotation Yrotation
        End Site
        {
          OFFSET -0.29 12.7742 2.51395
        }
      }
      JOINT LeftShoulder1
      {
        OFFSET 8.99 -0.362252 -0.22
        CHANNELS 3 Zrotation Xrotation Yrotation
        JOINT LeftArm
        {
          OFFSET 10.2827 -0.00338 0.322123
          CHANNELS 3 Zrotation Xrotation Yrotation
          JOINT LeftForeArm
          {
            OFFSET 32.7669 0.099144 -1.42434
            CHANNELS 3 Zrotation Xrotation Yrotation
            JOINT LeftHand
            {
              OFFSET 27.5643 0.085362 1.02216
              CHANNELS 3 Zrotation Xrotation Yrotation
              End Site
              {
                OFFSET 16.7443 -0.6 1.50291
              }
            }
          }
        }
      }
      JOINT RightShoulder
      {
        OFFSET -8.99 -0.362252 -0.22
        CHANNELS 3 Zrotation Xrotation Yrotation
        JOINT RightArm
        {
          OFFSET -10.2827 -0.00338 0.322123
          CHANNELS 3 Zrotation Xrotation Yrotation
          JOINT RightForeArm
          {
            OFFSET -32.8971 0.099144 -1.42434
            CHANNELS 3 Zrotation Xrotation Yrotation
            JOINT RightHand
            {
              OFFSET -27.4921 0.085362 1.02216
              CHANNELS 3 Zrotation Xrotation Yrotation
              End Site
              {
                OFFSET -16.6312 -0.6 1.50291
              }
            }
          }
        }
      }
    }
  }
  JOINT LeftUpLeg
  {
    OFFSET 8.9458 -8.66707 0.101652
    CHANNELS 3 Zrotation Xrotation Yrotation
    JOINT LeftLeg
    {
      OFFSET 7.10543e-014 -44.4227 1.3727
      CHANNELS 3 Zrotation Xrotation Yrotation
      JOINT LeftFoot
      {
        OFFSET -0.253549 -42.0924 -1.46059
        CHANNELS 3 Zrotation Xrotation Yrotation
        JOINT LeftToes
        {
          OFFSET -0.04 -4.41509 8.4991
          CHANNELS 3 Zrotation Xrotation Yrotation
          End Site
          {
            OFFSET 0.08 -0.047448 9.77979
          }
        }
      }
    }
  }
}
MOTION
Frames:	9
Frame Time:	0.0166667
-96.1107 94.8327 11.1319 1.18498 -0.907059 114.732 -21.3166 -16.0928 11.0122 13.8843 44.0464 -22.6831 -0.465464 5.15477 -0.0359811 -8.36525 -26.1455 -1.88855 6.07616 5.59932 -0.803618 2.64139 11.1298 -0.756602 5.95624 -10.4124 -3.8229 -5.03302e-021 -3.88251e-019 1.21329e-020 -64.8683 3.18681 -9.47733 -11.0972 34.8667 -114.336 6.54677 9.62745 -1.04006 26.2915 -4.34936 -17.7345 45.2419 -21.8745 23.1053 -10.3277 29.3909 136.096 4.59091 9.19001 -19.7303 21.2294 -6.18053 -6.53725 -18.0924 26.7955 10.3257 -9.97608 19.7301 2.24513 38.5617 -51.2431 23.959 
-96.2616 95.8363 9.41686 0.801563 -1.00118 115.251 -21.4497 -17.8272 9.01473 16.5885 46.3731 -23.8891 -0.294753 5.24228 -0.0542457 -8.25124 -27.1581 -1.07673 6.44086 5.55287 -0.78968 2.62939 11.0437 -0.726871 5.35789 -10.7221 -4.91178 -5.03302e-021 -3.88251e-019 1.21329e-020 -63.5167 2.64625 -7.5088 -10.8741 34.7979 -115.039 6.54677 9.62745 -1.04006 26.1868 -4.57118 -18.5704 44.4194 -23.1876 21.3189 -10.0506 29.2036 136.872 4.82655 9.13072 -20.2986 20.7958 -6.91172 -5.94845 -18.067 27.3368 6.77431 -13.2301 19.7153 3.0248 35.8517 -50.2842 21.0038 
-96.3855 96.7272 7.83407 0.381693 -1.04418 115.804 -21.7711 -19.5081 6.78425 19.5851 48.3836 -25.3122 0.0891227 4.4848 -0.101725 -8.12003 -27.3085 -0.728703 6.63742 5.4983 -0.795296 2.52525 10.9298 -0.768927 4.76259 -10.8627 -5.93281 -5.03302e-021 -3.88251e-019 1.21329e-020 -62.5789 1.7599 -6.01654 -10.6542 34.7715 -115.813 6.54677 9.62745 -1.04006 25.9827 -4.70183 -19.1469 44.0211 -24.4423 19.907 -9.87291 28.8481 137.776 4.23543 9.20268 -20.5301 20.613 -7.80421 -5.46613 -18.0791 28.0972 3.47431 -16.1234 19.5638 3.70241 32.6041 -48.5534 17.8527 
-96.4899 97.4662 6.32616 -0.0700148 -1.03069 116.265 -22.2058 -21.0611 4.62397 22.449 49.7614 -26.6169 0.712184 2.94632 -0.168176 -7.88385 -26.2703 -0.834748 6.65591 5.42613 -0.789077 2.33433 10.7633 -0.818074 4.20492 -10.7904 -6.86187 -5.03302e-021 -3.88251e-019 1.21329e-020 -62.0891 0.599308 -5.01381 -10.4094 34.7667 -116.685 6.54677 9.62745 -1.04006 25.6753 -4.74684 -19.4873 43.9628 -25.6139 18.854 -9.7689 28.3399 138.74 2.87012 9.40033 -20.3559 20.6324 -8.70083 -5.25893 -18.1549 28.898 1.33786 -18.0436 19.3528 4.13341 29.6463 -46.4541 15.2915 
-96.5816 98.0279 4.8475 -0.542096 -0.970421 116.511 -22.6447 -22.4504 2.75312 24.6959 50.2869 -27.2257 1.61904 0.856313 -0.236329 -7.54529 -24.2247 -1.32371 6.51067 5.32937 -0.746239 2.07361 10.5281 -0.816925 3.7041 -10.4868 -7.64448 -5.03302e-021 -3.88251e-019 1.21329e-020 -62.0472 -0.768759 -4.49492 -10.1192 34.7716 -117.681 6.54677 9.62745 -1.04006 25.2405 -4.70506 -19.5988 44.1844 -26.7009 18.1552 -9.71448 27.7129 139.694 0.86021 9.68801 -19.7561 20.863 -9.43753 -5.45478 -18.3882 29.515 1.19413 -18.5237 19.147 4.21636 27.5164 -44.4472 13.8143 
-96.6586 98.3909 3.37626 -1.0246 -0.868009 116.464 -22.9908 -23.6415 1.27401 25.9322 49.8738 -26.5788 2.84122 -1.54318 -0.28365 -7.10562 -21.5341 -2.03658 6.18968 5.20413 -0.659221 1.7631 10.2201 -0.741532 3.26894 -9.9629 -8.21151 -5.03302e-021 -3.88251e-019 1.21329e-020 -62.4219 -2.29911 -4.45679 -9.78652 34.7902 -118.794 6.54677 9.62745 -1.04006 24.6421 -4.5715 -19.4757 44.6742 -27.726 17.8296 -9.70814 27.0016 140.584 -1.58809 10.0077 -18.7899 21.3405 -9.89615 -6.09848 -18.9015 29.7799 3.56025 -17.3076 18.8171 3.87879 26.0024 -42.4242 13.3324 
-96.7057 98.5312 1.91531 -1.51437 -0.706994 116.122 -23.1986 -24.5748 0.172957 26.0128 48.5677 -24.4447 4.35131 -4.06992 -0.285155 -6.52267 -18.5278 -2.71261 5.62975 5.04859 -0.544505 1.41507 9.84995 -0.614217 2.90865 -9.25571 -8.50695 -5.03302e-021 -3.88251e-019 1.21329e-020 -63.1545 -3.97362 -4.92743 -9.45495 34.8557 -119.967 6.54677 9.62745 -1.04006 23.8504 -4.34579 -19.1165 45.4677 -28.7258 17.9249 -9.78537 26.2271 141.384 -4.23689 10.3021 -17.5914 22.0765 -10.032 -7.14925 -19.7765 29.6397 8.41792 -14.4738 17.924 3.108 24.1007 -39.4305 13.1718 
-96.7037 98.4169 0.478604 -2.00471 -0.459483 115.574 -23.288 -25.1875 -0.64192 25.1149 46.5492 -21.1054 6.01423 -6.55188 -0.223065 -5.76525 -15.5031 -3.06721 4.76981 4.86375 -0.441592 1.02829 9.44378 -0.496436 2.64683 -8.4196 -8.51329 -5.03302e-021 -3.88251e-019 1.21329e-020 -64.1685 -5.79341 -5.98925 -9.21446 35.0422 -121.078 6.54677 9.62745 -1.04006 22.8672 -4.04119 -18.5419 46.6249 -29.7436 18.5112 -10.0175 25.4049 142.091 -6.8827 10.5382 -16.3356 23.0254 -9.86131 -8.49835 -20.9818 29.1407 15.0496 -10.6407 15.9209 2.07333 20.6319 -34.175 12.4778 
-96.6513 98.0077 -0.93119 -2.46521 -0.120105 114.972 -23.3236 -25.499 -1.27649 23.6754 44.1876 -17.2919 7.57036 -8.74879 -0.106192 -4.91907 -12.8277 -2.97563 3.66111 4.66187 -0.399001 0.591945 9.04595 -0.464332 2.5301 -7.51502 -8.26456 -5.03302e-021 -3.88251e-019 1.21329e-020 -65.3845 -7.75908 -7.78621 -9.18857 35.4556 -121.956 6.54677 9.62745 -1.04006 21.7478 -3.68781 -17.8026 48.1946 -30.8322 19.6658 -10.4946 24.5728 142.719 -9.39498 10.7135 -15.1974 24.1 -9.42556 -9.9879 -22.3352 28.367 22.1464 -6.88985 12.7338 1.12974 15.4782 -26.2011 11.1242 
